<svg xmlns="http://www.w3.org/2000/svg" version="1.1" xmlns:xlink="http://www.w3.org/1999/xlink" xmlns:svgjs="http://svgjs.dev/svgjs" width="1000" height="262" viewBox="0 0 1000 262"><g transform="matrix(1,0,0,1,-0.6060591412431791,0.143278028960367)"><svg viewBox="0 0 396 104" data-background-color="#ffffff" preserveAspectRatio="xMidYMid meet" height="262" width="1000" xmlns="http://www.w3.org/2000/svg" xmlns:xlink="http://www.w3.org/1999/xlink"><g id="tight-bounds" transform="matrix(1,0,0,1,0.23999941993230323,-0.05687372141937885)"><svg viewBox="0 0 395.52 104.11374744283877" height="104.11374744283877" width="395.52"><g><svg viewBox="0 0 567.2172217901979 149.31004898536946" height="104.11374744283877" width="395.52"><g transform="matrix(1,0,0,1,171.69722179019786,33.79791454036338)"><svg viewBox="0 0 395.52 81.7142199046427" height="81.7142199046427" width="395.52"><g id="textblocktransform"><svg viewBox="0 0 395.52 81.7142199046427" height="81.7142199046427" width="395.52" id="textblock"><g><svg viewBox="0 0 395.52 47.41518156193002" height="47.41518156193002" width="395.52"><g transform="matrix(1,0,0,1,0,0)"><svg width="395.52" viewBox="2.049999952316284 -35.5 301.5299987792969 36.150001525878906" height="47.41518156193002" data-palette-color="#ffa458"><path d="M12.9-35.25L12.9-35.25 24.7-34.95Q27.25-34.95 28.65-35.05L28.65-35.05Q28.8-34.15 28.8-32.85 28.8-31.55 28.1-30.85 27.4-30.15 25.65-30.15L25.65-30.15 18-30.75Q17.25-30.75 16.75-30.7L16.75-30.7Q16.65-28.8 14.65-19.6L14.65-19.6Q17.5-19.85 20.35-19.85 23.2-19.85 24.5-19.4L24.5-19.4Q24.3-17.1 23.55-15.7L23.55-15.7 23.3-15.2Q21.9-15.65 19.03-15.65 16.15-15.65 13.75-15.45L13.75-15.45Q11.9-6.5 11.9-1.7L11.9-1.7 11.9-1Q9.25 0.3 2.6 0.3L2.6 0.3 2.05 0.3Q2.05-4.1 4.25-14.5 6.45-24.9 6.9-29.05L6.9-29.05Q6.9-30.05 6.35-31.13 5.8-32.2 5.25-32.8L5.25-32.8 4.7-33.35 4.8-34.5Q8.5-35.25 12.9-35.25ZM55.9-31.08Q57.35-29.05 58.05-26.8 58.75-24.55 58.75-21.45 58.75-18.35 57.67-14.55 56.6-10.75 54.47-7.28 52.35-3.8 48.6-1.6 44.85 0.6 40.05 0.6L40.05 0.6Q34.2 0.6 30.85-3.35 27.5-7.3 27.5-13.3 27.5-19.3 29.77-24.28 32.05-29.25 36.27-32.38 40.5-35.5 45.7-35.5L45.7-35.5Q49.2-35.5 51.82-34.3 54.45-33.1 55.9-31.08ZM39.15-3.9L39.15-3.9Q40.05-3.2 41.77-3.2 43.5-3.2 45.02-5.23 46.55-7.25 47.4-10.45L47.4-10.45Q49-16.75 49-23.5L49-23.5Q49-31.7 45-31.7L45-31.7Q43.1-31.7 41.57-29.93 40.05-28.15 39.15-25.3L39.15-25.3Q37.3-19.5 37.3-12.85L37.3-12.85Q37.3-5.4 39.15-3.9ZM89.64-31.08Q91.09-29.05 91.8-26.8 92.5-24.55 92.5-21.45 92.5-18.35 91.42-14.55 90.34-10.75 88.22-7.28 86.09-3.8 82.34-1.6 78.59 0.6 73.8 0.6L73.8 0.6Q67.94 0.6 64.59-3.35 61.24-7.3 61.24-13.3 61.24-19.3 63.52-24.28 65.8-29.25 70.02-32.38 74.25-35.5 79.44-35.5L79.44-35.5Q82.94-35.5 85.57-34.3 88.19-33.1 89.64-31.08ZM72.89-3.9L72.89-3.9Q73.8-3.2 75.52-3.2 77.25-3.2 78.77-5.23 80.3-7.25 81.14-10.45L81.14-10.45Q82.75-16.75 82.75-23.5L82.75-23.5Q82.75-31.7 78.75-31.7L78.75-31.7Q76.84-31.7 75.32-29.93 73.8-28.15 72.89-25.3L72.89-25.3Q71.05-19.5 71.05-12.85L71.05-12.85Q71.05-5.4 72.89-3.9ZM109.54 0.6L109.54 0.6Q106.19 0.6 103.24-0.7L103.24-0.7Q100.69 0.25 97.77 0.25 94.84 0.25 94.64 0.2L94.64 0.2Q94.64-3.25 97.39-14.73 100.14-26.2 100.14-27.78 100.14-29.35 99.57-30.6 98.99-31.85 98.39-32.5L98.39-32.5 97.84-33.1 97.99-34.25Q99.44-34.6 103.82-35.05 108.19-35.5 111.39-35.5L111.39-35.5Q119.09-35.5 122.82-32.33 126.54-29.15 126.54-22.15L126.54-22.15Q126.54-16.7 124.57-11.58 122.59-6.45 118.59-2.93 114.59 0.6 109.54 0.6ZM112.09-31.95L112.09-31.95Q111.19-31.95 110.14-31.8L110.14-31.8Q109.99-28.9 107.59-18.48 105.19-8.05 104.64-4.2L104.64-4.2Q105.54-3.75 106.79-3.75L106.79-3.75Q109.44-3.75 111.52-6.15 113.59-8.55 114.69-12.15L114.69-12.15Q116.84-19.45 116.84-25.4L116.84-25.4Q116.84-29 115.77-30.48 114.69-31.95 112.09-31.95ZM144.94 0.6L144.94 0.6Q140.94 0.6 136.94-0.8L136.94-0.8Q134.04 0.3 130.24 0.3L130.24 0.3Q129.39 0.3 128.69 0.2L128.69 0.2Q128.69-2.8 131.44-14.6 134.19-26.4 134.19-27.95 134.19-29.5 133.62-30.7 133.04-31.9 132.44-32.5L132.44-32.5 131.89-33.05 132.09-34.3Q133.34-34.55 137.87-35.02 142.39-35.5 145.54-35.5L145.54-35.5Q157.74-35.5 157.74-27.65L157.74-27.65Q157.74-24 155.27-21.7 152.79-19.4 149.14-18.6L149.14-18.6Q152.59-18.2 154.94-16.13 157.29-14.05 157.29-10.25L157.29-10.25Q157.29-5.55 153.79-2.48 150.29 0.6 144.94 0.6ZM143.24-16.9L143.24-16.9Q142.34-16.9 141.24-16.75L141.24-16.75Q139.29-8.2 138.74-4.35L138.74-4.35Q139.84-3.7 141.74-3.7L141.74-3.7Q144.64-3.7 146.09-6.1 147.54-8.5 147.54-11.53 147.54-14.55 146.47-15.73 145.39-16.9 143.24-16.9ZM142.14-20.55L142.59-20.55Q144.79-20.55 146.04-22.2L146.04-22.2Q148.29-25.05 148.29-28.53 148.29-32 145.89-32L145.89-32 144.24-31.8Q144.19-29.85 142.14-20.55L142.14-20.55ZM162.94-0.65L162.94-0.65Q162.59 0.45 160.61 0.45 158.64 0.45 156.69-0.9L156.69-0.9Q158.24-5.1 162.86-14.88 167.49-24.65 169.04-29.45L169.04-29.45Q169.19-30.05 169.19-30.48 169.19-30.9 168.84-31.65 168.49-32.4 168.09-32.85L168.09-32.85 167.74-33.3 167.94-34.3Q172.39-35.5 178.49-35.5L178.49-35.5 182.34-35.3Q182.84-34.85 183.34-32.95 183.84-31.05 183.99-27.25 184.14-23.45 184.19-13L184.19-13Q184.24-4.95 186.19-4.95L186.19-4.95Q186.69-4.95 188.34-5.45L188.34-5.45 188.84-5.6 189.89-2.75Q187.84-1.2 185.09-0.3 182.34 0.6 180.14 0.6L180.14 0.6Q176.94 0.6 175.76-1.38 174.59-3.35 174.59-6.48 174.59-9.6 174.64-10.8L174.64-10.8Q173.69-11 170.94-11 168.19-11 166.19-10.45L166.19-10.45Q164.34-5.5 162.94-0.65ZM167.99-15L174.84-15Q175.09-19.35 175.09-23.75 175.09-28.15 174.59-30.15L174.59-30.15Q174.09-30.15 173.89-30.05L173.89-30.05Q172.79-26.7 167.99-15L167.99-15ZM212.39-9.15L212.39-9.15Q212.39-5 208.41-2.2 204.44 0.6 199.19 0.6L199.19 0.6Q195.09 0.6 192.26-1.15 189.44-2.9 189.44-4.5L189.44-4.5Q190.24-6.45 192.49-8.7 194.74-10.95 196.64-11.05L196.64-11.05Q197.89-10.5 198.96-8.33 200.04-6.15 200.69-3.3L200.69-3.3Q203.39-3.4 203.39-6.35L203.39-6.35Q203.39-8.3 201.91-11.13 200.44-13.95 198.69-16.4 196.94-18.85 195.46-21.85 193.99-24.85 193.99-27.1L193.99-27.1Q193.99-30.8 197.39-33.15 200.79-35.5 204.96-35.5 209.14-35.5 211.46-33.7 213.79-31.9 213.79-29.55L213.79-29.55Q213.79-27.6 212.99-26.43 212.19-25.25 211.71-24.63 211.24-24 210.44-23.3L210.44-23.3Q208.94-22 208.14-21.4L208.14-21.4 207.39-20.85Q210.34-17.2 211.84-12.35L211.84-12.35Q212.39-10.6 212.39-9.15ZM209.79-29.2L209.79-29.2Q209.79-31.55 206.79-31.55L206.79-31.55Q205.04-31.55 203.96-30.8 202.89-30.05 202.89-28.93 202.89-27.8 203.81-26.2 204.74-24.6 205.29-23.95L205.29-23.95Q206.49-24.55 208.14-26.15 209.79-27.75 209.79-29.2ZM225.98-1L225.98-1Q223.58 0.3 218.98 0.3L218.98 0.3Q217.53 0.3 216.18 0.1L216.18 0.1Q216.18-2.55 218.96-13.8 221.73-25.05 221.73-28.95L221.73-28.95Q221.73-29.95 221.23-31.08 220.73-32.2 220.23-32.8L220.23-32.8 219.68-33.45 219.88-34.45Q223.43-35.5 231.03-35.5L231.03-35.5Q231.73-34.1 231.73-31.95 231.73-29.8 229.63-20.05L229.63-20.05 229.93-20.05Q233.53-20.05 235.36-23.33 237.18-26.6 238.18-34.15L238.18-34.15Q242.63-35.5 246.98-35.5L246.98-35.5Q247.08-35.1 247.03-33.33 246.98-31.55 246.11-28.6 245.23-25.65 242.98-22.53 240.73-19.4 237.48-17.75L237.48-17.75Q241.28-4.65 243.38-4.65L243.38-4.65Q244.18-4.65 245.93-5.25L245.93-5.25 246.48-5.45 247.68-2.7Q243.03 0.6 238.28 0.6 233.53 0.6 232.03-4.3L232.03-4.3Q230.53-9.3 229.78-16.05L229.78-16.05 228.73-16.05Q225.98-3.85 225.98-1ZM260.23 0.65L260.23 0.65Q253.93 0.65 250.53-3.4L250.53-3.4Q248.68-5.6 248.68-8.75L248.68-8.75Q248.68-13 251.68-15.73 254.68-18.45 258.78-18.9L258.78-18.9Q252.48-20.6 252.48-26.15L252.48-26.15Q252.48-30.45 256.18-32.98 259.88-35.5 264.61-35.5 269.33-35.5 272.48-33.55 275.63-31.6 275.63-28.4L275.63-28.4Q275.63-26.55 274.63-24.9L274.63-24.9 274.28-24.35Q272.23-24.35 269.88-24.98 267.53-25.6 266.33-26.6L266.33-26.6 266.83-31.7Q266.08-32.05 265.33-32.05L265.33-32.05Q263.78-32.05 262.96-30.4 262.13-28.75 262.13-26.55 262.13-24.35 262.61-23.05 263.08-21.75 264.11-21.08 265.13-20.4 265.91-20.13 266.68-19.85 268.08-19.55L268.08-19.55 267.68-16.65Q264.23-16.65 261.33-14.7 258.43-12.75 258.43-9.45L258.43-9.45Q258.43-7.1 259.93-6.03 261.43-4.95 263.51-4.95 265.58-4.95 267.88-6 270.18-7.05 271.83-8.65L271.83-8.65 274.08-6.4Q271.93-3.45 268.13-1.4 264.33 0.65 260.23 0.65ZM280.73 0.35L280.73 0.35 279.58 0.35Q279.58-3.8 281.93-14.8 284.28-25.8 284.55-27.98 284.83-30.15 284.88-31.25L284.88-31.25Q280.18-31.15 277.38-29.8L277.38-29.8Q275.93-31.45 275.58-34.65L275.58-34.65Q278.03-35.5 283.98-35.5L283.98-35.5 299.73-35Q300.88-35 303.38-35.1L303.38-35.1Q303.58-33.5 303.58-32.4L303.58-32.4Q303.58-30.05 300.63-30.05L300.63-30.05Q299.73-30.05 297.8-30.35 295.88-30.65 294.43-30.7L294.43-30.7Q294.28-29.1 291.85-17.7 289.43-6.3 289.43-0.95L289.43-0.95Q287.23 0.35 280.73 0.35Z" opacity="1" transform="matrix(1,0,0,1,0,0)" fill="#ffa458" class="wordmark-text-0" data-fill-palette-color="primary" id="text-0"></path></svg></g></svg></g><g transform="matrix(1,0,0,1,0,58.60876796434421)"><svg viewBox="0 0 232.20979199999996 23.1054519402985" height="23.1054519402985" width="232.20979199999996"><g transform="matrix(1,0,0,1,0,0)"><svg width="232.20979199999996" viewBox="1.2000000476837158 -35.5 452.2099914550781 45" height="23.1054519402985" data-palette-color="#ba3b0a"><path d="M3.2 0L2.2 0Q1.8 0 1.5-0.3 1.2-0.6 1.2-1L1.2-1Q1.2-1.25 1.3-1.55L1.3-1.55 13.95-34Q14.15-34.5 14.48-34.75 14.8-35 15.4-35L15.4-35 17.1-35Q17.7-35 18.03-34.75 18.35-34.5 18.55-34L18.55-34 31.2-1.55Q31.3-1.25 31.3-1L31.3-1Q31.3-0.6 31-0.3 30.7 0 30.3 0L30.3 0 29.3 0Q28.8 0 28.55-0.28 28.3-0.55 28.2-0.75L28.2-0.75 25.1-8.75 7.4-8.75 4.3-0.75Q4.25-0.55 3.98-0.28 3.7 0 3.2 0L3.2 0ZM16.25-31.45L8.6-11.75 23.9-11.75 16.25-31.45ZM38.5 0L37.65 0Q37.15 0 36.85-0.3 36.55-0.6 36.55-1.1L36.55-1.1 36.55-24.9Q36.55-25.4 36.85-25.7 37.15-26 37.65-26L37.65-26 38.5-26Q39-26 39.3-25.7 39.6-25.4 39.6-24.9L39.6-24.9 39.6-22.55Q40.95-24.3 42.87-25.4 44.8-26.5 48-26.5L48-26.5Q51.4-26.5 53.67-25.03 55.95-23.55 57.07-21.03 58.2-18.5 58.2-15.3L58.2-15.3 58.2-1.1Q58.2-0.6 57.9-0.3 57.6 0 57.1 0L57.1 0 56.25 0Q55.75 0 55.45-0.3 55.15-0.6 55.15-1.1L55.15-1.1 55.15-15.05Q55.15-19.05 53.2-21.33 51.25-23.6 47.5-23.6L47.5-23.6Q43.95-23.6 41.77-21.33 39.6-19.05 39.6-15.05L39.6-15.05 39.6-1.1Q39.6-0.6 39.3-0.3 39 0 38.5 0L38.5 0ZM71.45 9.5L70.45 9.5Q70.05 9.5 69.75 9.2 69.45 8.9 69.45 8.5L69.45 8.5Q69.45 8.3 69.52 8.08 69.59 7.85 69.75 7.5L69.75 7.5 73.59-1.5 64.05-24Q63.75-24.75 63.75-25L63.75-25Q63.75-25.4 64.05-25.7 64.34-26 64.75-26L64.75-26 65.8-26Q66.3-26 66.55-25.78 66.8-25.55 66.95-25.25L66.95-25.25 75.34-5.45 83.95-25.25Q84.09-25.55 84.34-25.78 84.59-26 85.09-26L85.09-26 86.09-26Q86.5-26 86.8-25.7 87.09-25.4 87.09-25L87.09-25Q87.09-24.75 86.8-24L86.8-24 72.59 8.75Q72.45 9.05 72.2 9.28 71.95 9.5 71.45 9.5L71.45 9.5ZM104.34 0L101.39 0Q98.79 0 97.29-1.1 95.79-2.2 95.19-4.1 94.59-6 94.59-8.35L94.59-8.35 94.59-23.1 90.69-23.1Q90.19-23.1 89.89-23.4 89.59-23.7 89.59-24.2L89.59-24.2 89.59-24.9Q89.59-25.4 89.89-25.7 90.19-26 90.69-26L90.69-26 94.59-26 94.59-34.4Q94.59-34.9 94.89-35.2 95.19-35.5 95.69-35.5L95.69-35.5 96.54-35.5Q97.04-35.5 97.34-35.2 97.64-34.9 97.64-34.4L97.64-34.4 97.64-26 103.84-26Q104.34-26 104.64-25.7 104.94-25.4 104.94-24.9L104.94-24.9 104.94-24.2Q104.94-23.7 104.64-23.4 104.34-23.1 103.84-23.1L103.84-23.1 97.64-23.1 97.64-8.55Q97.64-5.9 98.52-4.4 99.39-2.9 101.64-2.9L101.64-2.9 104.34-2.9Q104.84-2.9 105.14-2.6 105.44-2.3 105.44-1.8L105.44-1.8 105.44-1.1Q105.44-0.6 105.14-0.3 104.84 0 104.34 0L104.34 0ZM112.54 0L111.69 0Q111.19 0 110.89-0.3 110.59-0.6 110.59-1.1L110.59-1.1 110.59-24.9Q110.59-25.4 110.89-25.7 111.19-26 111.69-26L111.69-26 112.54-26Q113.04-26 113.34-25.7 113.64-25.4 113.64-24.9L113.64-24.9 113.64-1.1Q113.64-0.6 113.34-0.3 113.04 0 112.54 0L112.54 0ZM113.04-31.35L111.14-31.35Q110.64-31.35 110.34-31.65 110.04-31.95 110.04-32.45L110.04-32.45 110.04-34.35Q110.04-34.85 110.34-35.18 110.64-35.5 111.14-35.5L111.14-35.5 113.04-35.5Q113.54-35.5 113.87-35.18 114.19-34.85 114.19-34.35L114.19-34.35 114.19-32.45Q114.19-31.95 113.87-31.65 113.54-31.35 113.04-31.35L113.04-31.35ZM123.69 0L122.84 0Q122.34 0 122.04-0.3 121.74-0.6 121.74-1.1L121.74-1.1 121.74-24.9Q121.74-25.4 122.04-25.7 122.34-26 122.84-26L122.84-26 123.69-26Q124.19-26 124.49-25.7 124.79-25.4 124.79-24.9L124.79-24.9 124.79-23.15Q126.04-24.75 127.76-25.63 129.49-26.5 131.94-26.5L131.94-26.5Q137.54-26.5 139.94-21.8L139.94-21.8Q141.09-23.95 143.31-25.23 145.54-26.5 148.44-26.5L148.44-26.5Q151.09-26.5 153.21-25.28 155.34-24.05 156.56-21.65 157.79-19.25 157.79-15.65L157.79-15.65 157.79-1.1Q157.79-0.6 157.49-0.3 157.19 0 156.69 0L156.69 0 155.84 0Q155.34 0 155.04-0.3 154.74-0.6 154.74-1.1L154.74-1.1 154.74-15.15Q154.74-18.45 153.79-20.28 152.84-22.1 151.29-22.85 149.74-23.6 147.94-23.6L147.94-23.6Q146.44-23.6 144.89-22.85 143.34-22.1 142.31-20.28 141.29-18.45 141.29-15.15L141.29-15.15 141.29-1.1Q141.29-0.6 140.99-0.3 140.69 0 140.19 0L140.19 0 139.34 0Q138.84 0 138.54-0.3 138.24-0.6 138.24-1.1L138.24-1.1 138.24-15.15Q138.24-18.45 137.24-20.28 136.24-22.1 134.69-22.85 133.14-23.6 131.44-23.6L131.44-23.6Q129.94-23.6 128.39-22.85 126.84-22.1 125.81-20.28 124.79-18.45 124.79-15.2L124.79-15.2 124.79-1.1Q124.79-0.6 124.49-0.3 124.19 0 123.69 0L123.69 0ZM175.29 0.5L175.29 0.5Q170.44 0.5 167.59-2.68 164.74-5.85 164.34-11L164.34-11Q164.29-11.75 164.29-13 164.29-14.25 164.34-15L164.34-15Q164.59-18.4 165.94-21 167.29-23.6 169.66-25.05 172.04-26.5 175.29-26.5L175.29-26.5Q178.79-26.5 181.24-24.95 183.69-23.4 185.01-20.5 186.34-17.6 186.34-13.6L186.34-13.6 186.34-12.85Q186.34-12.35 186.01-12.05 185.69-11.75 185.19-11.75L185.19-11.75 167.39-11.75Q167.39-11.75 167.39-11.55 167.39-11.35 167.39-11.25L167.39-11.25Q167.49-9 168.44-6.98 169.39-4.95 171.14-3.68 172.89-2.4 175.29-2.4L175.29-2.4Q177.44-2.4 178.86-3.05 180.29-3.7 181.14-4.48 181.99-5.25 182.24-5.65L182.24-5.65Q182.69-6.3 182.94-6.43 183.19-6.55 183.74-6.55L183.74-6.55 184.54-6.55Q184.99-6.55 185.31-6.28 185.64-6 185.59-5.55L185.59-5.55Q185.54-4.85 184.81-3.83 184.09-2.8 182.76-1.8 181.44-0.8 179.54-0.15 177.64 0.5 175.29 0.5ZM167.39-14.75L167.39-14.55 183.29-14.55 183.29-14.75Q183.29-17.25 182.34-19.25 181.39-21.25 179.59-22.43 177.79-23.6 175.29-23.6L175.29-23.6Q172.79-23.6 171.01-22.43 169.24-21.25 168.31-19.25 167.39-17.25 167.39-14.75L167.39-14.75ZM206.28 3.75L205.43 3.75Q205.03 3.75 204.86 3.45 204.68 3.15 204.73 2.7L204.73 2.7 205.68-3.3Q205.78-3.9 206.06-4.28 206.33-4.65 206.93-4.65L206.93-4.65 209.18-4.65Q209.53-4.65 209.73-4.4 209.93-4.15 209.93-3.85L209.93-3.85Q209.93-3.4 209.73-2.95L209.73-2.95 207.58 2.7Q207.38 3.2 207.11 3.48 206.83 3.75 206.28 3.75L206.28 3.75ZM229.73 0L228.73 0Q228.33 0 228.03-0.3 227.73-0.6 227.73-1L227.73-1Q227.73-1.25 227.83-1.55L227.83-1.55 240.48-34Q240.68-34.5 241-34.75 241.33-35 241.93-35L241.93-35 243.63-35Q244.23-35 244.55-34.75 244.88-34.5 245.08-34L245.08-34 257.73-1.55Q257.83-1.25 257.83-1L257.83-1Q257.83-0.6 257.53-0.3 257.23 0 256.83 0L256.83 0 255.83 0Q255.33 0 255.08-0.28 254.83-0.55 254.73-0.75L254.73-0.75 251.63-8.75 233.93-8.75 230.83-0.75Q230.78-0.55 230.5-0.28 230.23 0 229.73 0L229.73 0ZM242.78-31.45L235.13-11.75 250.43-11.75 242.78-31.45ZM265.02 0L264.17 0Q263.67 0 263.37-0.3 263.07-0.6 263.07-1.1L263.07-1.1 263.07-24.9Q263.07-25.4 263.37-25.7 263.67-26 264.17-26L264.17-26 265.02-26Q265.52-26 265.82-25.7 266.12-25.4 266.12-24.9L266.12-24.9 266.12-22.55Q267.47-24.3 269.4-25.4 271.32-26.5 274.52-26.5L274.52-26.5Q277.92-26.5 280.2-25.03 282.47-23.55 283.6-21.03 284.72-18.5 284.72-15.3L284.72-15.3 284.72-1.1Q284.72-0.6 284.42-0.3 284.12 0 283.62 0L283.62 0 282.77 0Q282.27 0 281.97-0.3 281.67-0.6 281.67-1.1L281.67-1.1 281.67-15.05Q281.67-19.05 279.72-21.33 277.77-23.6 274.02-23.6L274.02-23.6Q270.47-23.6 268.3-21.33 266.12-19.05 266.12-15.05L266.12-15.05 266.12-1.1Q266.12-0.6 265.82-0.3 265.52 0 265.02 0L265.02 0ZM297.97 9.5L296.97 9.5Q296.57 9.5 296.27 9.2 295.97 8.9 295.97 8.5L295.97 8.5Q295.97 8.3 296.05 8.08 296.12 7.85 296.27 7.5L296.27 7.5 300.12-1.5 290.57-24Q290.27-24.75 290.27-25L290.27-25Q290.27-25.4 290.57-25.7 290.87-26 291.27-26L291.27-26 292.32-26Q292.82-26 293.07-25.78 293.32-25.55 293.47-25.25L293.47-25.25 301.87-5.45 310.47-25.25Q310.62-25.55 310.87-25.78 311.12-26 311.62-26L311.62-26 312.62-26Q313.02-26 313.32-25.7 313.62-25.4 313.62-25L313.62-25Q313.62-24.75 313.32-24L313.32-24 299.12 8.75Q298.97 9.05 298.72 9.28 298.47 9.5 297.97 9.5L297.97 9.5ZM326.77 0L325.92 0Q325.27 0 324.92-0.3 324.57-0.6 324.32-1.25L324.32-1.25 317.27-24.45Q317.17-24.75 317.17-25L317.17-25Q317.17-25.4 317.47-25.7 317.77-26 318.17-26L318.17-26 319.12-26Q319.62-26 319.89-25.73 320.17-25.45 320.22-25.25L320.22-25.25 326.37-4.45 332.92-25Q333.02-25.3 333.32-25.65 333.62-26 334.27-26L334.27-26 335.27-26Q335.92-26 336.24-25.65 336.57-25.3 336.62-25L336.62-25 343.17-4.45 349.32-25.25Q349.37-25.45 349.64-25.73 349.92-26 350.42-26L350.42-26 351.37-26Q351.77-26 352.07-25.7 352.37-25.4 352.37-25L352.37-25Q352.37-24.75 352.27-24.45L352.27-24.45 345.22-1.25Q345.02-0.6 344.67-0.3 344.32 0 343.62 0L343.62 0 342.77 0Q342.12 0 341.69-0.3 341.27-0.6 341.07-1.25L341.07-1.25 334.77-20.95 328.47-1.25Q328.27-0.6 327.87-0.3 327.47 0 326.77 0L326.77 0ZM360.47 0L359.62 0Q359.12 0 358.82-0.3 358.52-0.6 358.52-1.1L358.52-1.1 358.52-34.4Q358.52-34.9 358.82-35.2 359.12-35.5 359.62-35.5L359.62-35.5 360.47-35.5Q360.97-35.5 361.27-35.2 361.57-34.9 361.57-34.4L361.57-34.4 361.57-22.55Q362.92-24.3 364.84-25.4 366.77-26.5 369.97-26.5L369.97-26.5Q373.37-26.5 375.64-25.03 377.92-23.55 379.04-21.03 380.17-18.5 380.17-15.3L380.17-15.3 380.17-1.1Q380.17-0.6 379.87-0.3 379.57 0 379.07 0L379.07 0 378.22 0Q377.72 0 377.42-0.3 377.12-0.6 377.12-1.1L377.12-1.1 377.12-15.05Q377.12-19.05 375.17-21.33 373.22-23.6 369.47-23.6L369.47-23.6Q365.92-23.6 363.74-21.33 361.57-19.05 361.57-15.05L361.57-15.05 361.57-1.1Q361.57-0.6 361.27-0.3 360.97 0 360.47 0L360.47 0ZM397.66 0.5L397.66 0.5Q392.81 0.5 389.96-2.68 387.11-5.85 386.71-11L386.71-11Q386.66-11.75 386.66-13 386.66-14.25 386.71-15L386.71-15Q386.96-18.4 388.31-21 389.66-23.6 392.04-25.05 394.41-26.5 397.66-26.5L397.66-26.5Q401.16-26.5 403.61-24.95 406.06-23.4 407.39-20.5 408.71-17.6 408.71-13.6L408.71-13.6 408.71-12.85Q408.71-12.35 408.39-12.05 408.06-11.75 407.56-11.75L407.56-11.75 389.76-11.75Q389.76-11.75 389.76-11.55 389.76-11.35 389.76-11.25L389.76-11.25Q389.86-9 390.81-6.98 391.76-4.95 393.51-3.68 395.26-2.4 397.66-2.4L397.66-2.4Q399.81-2.4 401.24-3.05 402.66-3.7 403.51-4.48 404.36-5.25 404.61-5.65L404.61-5.65Q405.06-6.3 405.31-6.43 405.56-6.55 406.11-6.55L406.11-6.55 406.91-6.55Q407.36-6.55 407.69-6.28 408.01-6 407.96-5.55L407.96-5.55Q407.91-4.85 407.19-3.83 406.46-2.8 405.14-1.8 403.81-0.8 401.91-0.15 400.01 0.5 397.66 0.5ZM389.76-14.75L389.76-14.55 405.66-14.55 405.66-14.75Q405.66-17.25 404.71-19.25 403.76-21.25 401.96-22.43 400.16-23.6 397.66-23.6L397.66-23.6Q395.16-23.6 393.39-22.43 391.61-21.25 390.69-19.25 389.76-17.25 389.76-14.75L389.76-14.75ZM417.21 0L416.41 0Q415.91 0 415.61-0.3 415.31-0.6 415.31-1.1L415.31-1.1 415.31-24.85Q415.31-25.35 415.61-25.68 415.91-26 416.41-26L416.41-26 417.21-26Q417.71-26 418.04-25.68 418.36-25.35 418.36-24.85L418.36-24.85 418.36-22.55Q419.26-24.3 420.96-25.15 422.66-26 425.16-26L425.16-26 427.01-26Q427.51-26 427.81-25.7 428.11-25.4 428.11-24.9L428.11-24.9 428.11-24.2Q428.11-23.7 427.81-23.4 427.51-23.1 427.01-23.1L427.01-23.1 424.86-23.1Q421.86-23.1 420.11-21.35 418.36-19.6 418.36-16.6L418.36-16.6 418.36-1.1Q418.36-0.6 418.04-0.3 417.71 0 417.21 0L417.21 0ZM442.36 0.5L442.36 0.5Q437.51 0.5 434.66-2.68 431.81-5.85 431.41-11L431.41-11Q431.36-11.75 431.36-13 431.36-14.25 431.41-15L431.41-15Q431.66-18.4 433.01-21 434.36-23.6 436.73-25.05 439.11-26.5 442.36-26.5L442.36-26.5Q445.86-26.5 448.31-24.95 450.76-23.4 452.08-20.5 453.41-17.6 453.41-13.6L453.41-13.6 453.41-12.85Q453.41-12.35 453.08-12.05 452.76-11.75 452.26-11.75L452.26-11.75 434.46-11.75Q434.46-11.75 434.46-11.55 434.46-11.35 434.46-11.25L434.46-11.25Q434.56-9 435.51-6.98 436.46-4.95 438.21-3.68 439.96-2.4 442.36-2.4L442.36-2.4Q444.51-2.4 445.93-3.05 447.36-3.7 448.21-4.48 449.06-5.25 449.31-5.65L449.31-5.65Q449.76-6.3 450.01-6.43 450.26-6.55 450.81-6.55L450.81-6.55 451.61-6.55Q452.06-6.55 452.38-6.28 452.71-6 452.66-5.55L452.66-5.55Q452.61-4.85 451.88-3.83 451.16-2.8 449.83-1.8 448.51-0.8 446.61-0.15 444.71 0.5 442.36 0.5ZM434.46-14.75L434.46-14.55 450.36-14.55 450.36-14.75Q450.36-17.25 449.41-19.25 448.46-21.25 446.66-22.43 444.86-23.6 442.36-23.6L442.36-23.6Q439.86-23.6 438.08-22.43 436.31-21.25 435.38-19.25 434.46-17.25 434.46-14.75L434.46-14.75Z" opacity="1" transform="matrix(1,0,0,1,0,0)" fill="#ba3b0a" class="slogan-text-1" data-fill-palette-color="secondary" id="text-1"></path></svg></g></svg></g></svg></g></svg></g><g><svg viewBox="0 0 149.31004898536946 149.31004898536946" height="149.31004898536946" width="149.31004898536946"><g><svg></svg></g><g id="icon-0"><svg viewBox="0 0 149.31004898536946 149.31004898536946" height="149.31004898536946" width="149.31004898536946"><g><path d="M0 74.655c0-41.231 33.424-74.655 74.655-74.655 41.231 0 74.655 33.424 74.655 74.655 0 41.231-33.424 74.655-74.655 74.655-41.231 0-74.655-33.424-74.655-74.655zM74.655 145.034c38.869 0 70.379-31.51 70.379-70.379 0-38.869-31.51-70.379-70.379-70.379-38.869 0-70.379 31.51-70.379 70.379 0 38.869 31.51 70.379 70.379 70.379z" data-fill-palette-color="accent" fill="#ba3b0a" stroke="transparent"></path></g><g transform="matrix(1,0,0,1,31.370421931148776,31.37096887646978)"><svg viewBox="0 0 86.56920512307191 86.5681112324299" height="86.5681112324299" width="86.56920512307191"><g><svg xmlns="http://www.w3.org/2000/svg" xmlns:xlink="http://www.w3.org/1999/xlink" version="1.1" x="0" y="0" viewBox="0 0 32.000404357910156 32" enable-background="new 0 0 32 32" xml:space="preserve" width="86.56920512307191" height="86.5681112324299" class="icon-s-0" data-fill-palette-color="accent" id="s-0"><g fill="#ba3b0a" data-fill-palette-color="accent"><path fill="#ba3b0a" d="M29.5 21h-2.691c-0.045-0.239-0.1-0.473-0.16-0.706l4.799-2.399c0.494-0.247 0.693-0.848 0.447-1.342-0.248-0.494-0.846-0.692-1.342-0.447l-4.578 2.288C24.229 14.626 20.42 12 16 12c-5.382 0-9.865 3.888-10.809 9H2.5C1.122 21 0 22.121 0 23.5c0 0.49 0.18 0.963 0.505 1.329L4 28.761V29.5C4 30.879 5.122 32 6.5 32h19c1.379 0 2.5-1.121 2.5-2.5v-0.739l3.494-3.932C31.82 24.463 32 23.99 32 23.5 32 22.121 30.879 21 29.5 21zM25.799 21h-0.562l0.498-0.25C25.754 20.834 25.781 20.915 25.799 21zM16 13c4.029 0 7.5 2.4 9.082 5.841l-0.891 0.445C22.775 16.171 19.645 14 16 14c-4.282 0-7.859 2.993-8.77 7H6.202C7.131 16.441 11.171 13 16 13zM20.576 21c-0.773-1.763-2.531-3-4.576-3s-3.802 1.237-4.576 3H10.35c0.826-2.326 3.043-4 5.65-4 2.465 0 4.588 1.496 5.508 3.627L20.764 21H20.576zM16 20c-0.883 0-1.67 0.391-2.22 1h-1.224c0.694-1.189 1.97-2 3.444-2 1.473 0 2.75 0.811 3.443 2h-1.225C17.67 20.391 16.883 20 16 20zM16 16c-3.165 0-5.842 2.112-6.705 5H8.263c0.892-3.444 4.017-6 7.737-6 3.246 0 6.043 1.948 7.295 4.734l-0.893 0.446C21.314 17.723 18.855 16 16 16zM26 28v1.5c0 0.276-0.225 0.5-0.5 0.5h-19C6.224 30 6 29.776 6 29.5V28l-4-4.5C2 23.224 2.224 23 2.5 23H5h1 1 1 1 1 1 1 1 6 1 1 1 1 1 1 1 1 2.5c0.275 0 0.5 0.224 0.5 0.5L26 28z" data-fill-palette-color="accent"></path><path fill="#ba3b0a" d="M7.977 11.712c0.003 0.006 0.005 0.012 0.008 0.018 0 0 0.001 0 0.002 0C8.07 11.89 8.236 12 8.43 12c0.277 0 0.502-0.226 0.502-0.503 0-0.043-0.007-0.085-0.018-0.125 0.002-0.007 0.002-0.013 0-0.02-0.375-0.882-0.019-1.85 0.419-2.892 0.473-1.126 0.98-2.376 0.422-3.647C9.684 4.63 9.507 4.5 9.299 4.5c-0.271 0-0.49 0.22-0.49 0.49 0 0.06 0.012 0.116 0.032 0.169 0 0.002 0 0.004 0.001 0.006 0.001 0.003 0.002 0.006 0.003 0.009C8.847 5.178 8.848 5.182 8.85 5.186c0.404 0.909 0.013 1.841-0.428 2.893C7.956 9.188 7.44 10.417 7.959 11.67 7.965 11.685 7.97 11.698 7.977 11.712z" data-fill-palette-color="accent"></path><path fill="#ba3b0a" d="M20.154 11.566c0.004 0.006 0.006 0.012 0.008 0.018h0.002c0.084 0.16 0.25 0.271 0.443 0.271 0.277 0 0.504-0.226 0.504-0.503 0-0.043-0.008-0.085-0.018-0.125 0.002-0.007 0.002-0.013-0.002-0.02-0.373-0.882-0.018-1.85 0.42-2.892 0.473-1.126 0.98-2.376 0.422-3.647-0.072-0.184-0.248-0.313-0.457-0.313-0.27 0-0.49 0.22-0.49 0.49 0 0.06 0.014 0.116 0.033 0.169 0 0.002 0 0.004 0 0.006 0.002 0.003 0.002 0.006 0.004 0.009 0.002 0.004 0.004 0.008 0.004 0.012 0.404 0.909 0.014 1.841-0.428 2.893-0.465 1.109-0.98 2.339-0.461 3.592C20.143 11.539 20.148 11.553 20.154 11.566z" data-fill-palette-color="accent"></path><path fill="#ba3b0a" d="M15.019 7.212c0.003 0.006 0.005 0.012 0.008 0.018 0 0 0.001 0 0.002 0 0.084 0.16 0.25 0.271 0.443 0.271 0.277 0 0.502-0.226 0.502-0.503 0-0.043-0.007-0.085-0.018-0.125 0.002-0.007 0.002-0.013 0-0.02-0.375-0.882-0.019-1.85 0.419-2.892 0.473-1.126 0.98-2.376 0.422-3.647C16.725 0.13 16.549 0 16.34 0c-0.27 0-0.49 0.22-0.49 0.49 0 0.06 0.012 0.116 0.032 0.169 0 0.002 0 0.004 0.001 0.006 0.001 0.003 0.002 0.006 0.003 0.009 0.001 0.004 0.003 0.008 0.004 0.012 0.404 0.909 0.013 1.841-0.428 2.893-0.466 1.109-0.982 2.339-0.462 3.592C15.007 7.185 15.012 7.198 15.019 7.212z" data-fill-palette-color="accent"></path></g></svg></g></svg></g></svg></g></svg></g></svg></g><defs></defs></svg><rect width="395.52" height="104.11374744283877" fill="none" stroke="none" visibility="hidden"></rect></g></svg></g></svg>